<svg width="28" height="23" viewBox="0 0 28 23" fill="none" xmlns="http://www.w3.org/2000/svg">
<path d="M17.36 9.75C17.36 9.75 16.38 15.46 15.34 16.69C14.29 17.93 12.44 18.08 11.21 17.03C9.98 15.97 9.84 14.11 10.88 12.88C11.93 11.64 17.36 9.75 17.36 9.75ZM23.56 22.26H3.46C3.15 22.26 2.86 22.12 2.67 21.87C0.97 19.65 0 16.66 0 13.69C0 6.14 6.06 0 13.51 0C20.97 0 27.03 6.13 27.03 13.66C27.03 16.66 26.05 19.65 24.35 21.87C24.16 22.12 23.87 22.26 23.56 22.26ZM3.97 20.25H23.05C24.31 18.42 25.03 16.05 25.03 13.66C25.03 7.24 19.86 2.01 13.51 2.01C7.16 2.01 2 7.25 2 13.69C2 16.06 2.71 18.42 3.97 20.25ZM5.58 13.9C5.02 13.9 4.57 13.45 4.57 12.89C4.57 7.88 8.58 3.81 13.51 3.81C18.44 3.81 22.45 7.87 22.45 12.86C22.45 13.42 22 13.87 21.45 13.87C20.9 13.87 20.45 13.42 20.45 12.86C20.45 8.98 17.34 5.82 13.51 5.82C9.69 5.82 6.58 9 6.58 12.89C6.58 13.45 6.13 13.9 5.58 13.9Z" fill="#1275B9"/>
</svg>
